<svg xmlns="http://www.w3.org/2000/svg" width="91mm" height="61mm" viewBox="-3 -3 91 61">
  <rect x="-3" y="-3" width="91" height="61" fill="#FDFBF7"/>
  <g transform="translate(6,18)" fill="#8B3A2A"><path transform="translate(0.000,0) scale(0.003020,-0.003020)" d="M135 0V1490H440V888H1089V1490H1395V0H1089V635H440V0Z"/><path transform="translate(4.621,0) scale(0.003020,-0.003020)" d="M633 -22Q462 -22 338.0 48.0Q214 118 147.5 247.0Q81 376 81 553Q81 726 147.5 856.0Q214 986 334.5 1059.0Q455 1132 618 1132Q764 1132 883.0 1070.0Q1002 1008 1072.5 882.0Q1143 756 1143 565V481H378Q383 344 454.0 274.0Q525 204 638 204Q717 204 773.5 237.5Q830 271 854 336L1126 285Q1085 146 956.5 62.0Q828 -22 633 -22ZM380 669H854Q843 778 784.0 842.0Q725 906 621 906Q513 906 451.0 839.5Q389 773 380 669Z"/><path transform="translate(8.305,0) scale(0.003020,-0.003020)" d="M428 1490V0H128V1490Z"/><path transform="translate(9.982,0) scale(0.003020,-0.003020)" d="M633 -22Q462 -22 338.0 48.0Q214 118 147.5 247.0Q81 376 81 553Q81 726 147.5 856.0Q214 986 334.5 1059.0Q455 1132 618 1132Q764 1132 883.0 1070.0Q1002 1008 1072.5 882.0Q1143 756 1143 565V481H378Q383 344 454.0 274.0Q525 204 638 204Q717 204 773.5 237.5Q830 271 854 336L1126 285Q1085 146 956.5 62.0Q828 -22 633 -22ZM380 669H854Q843 778 784.0 842.0Q725 906 621 906Q513 906 451.0 839.5Q389 773 380 669Z"/><path transform="translate(13.666,0) scale(0.003020,-0.003020)" d="M428 647V0H128V1118H411L415 887Q462 1004 548.0 1068.0Q634 1132 763 1132Q937 1132 1042.0 1020.0Q1147 908 1147 711V0H847V659Q847 763 793.5 822.0Q740 881 645 881Q549 881 488.5 819.5Q428 758 428 647Z"/><path transform="translate(19.063,0) scale(0.003020,-0.003020)" d="M135 0V1490H475L946 736Q990 663 1037.0 575.5Q1084 488 1133 371Q1125 481 1119.5 591.5Q1114 702 1114 775V1490H1426V0H1085L657 684Q616 751 581.0 814.0Q546 877 509.5 948.5Q473 1020 427 1113Q435 978 441.0 864.5Q447 751 447 685V0Z"/><path transform="translate(23.778,0) scale(0.003020,-0.003020)" d="M440 -22Q280 -22 174.0 62.5Q68 147 68 313Q68 438 128.0 509.0Q188 580 284.0 613.0Q380 646 490 656Q634 670 697.5 685.5Q761 701 761 756V761Q761 832 715.5 871.0Q670 910 586 910Q499 910 446.0 872.5Q393 835 375 781L100 827Q143 972 271.5 1052.0Q400 1132 587 1132Q707 1132 815.5 1094.0Q924 1056 992.5 972.5Q1061 889 1061 753V0H777V155H767Q726 77 645.0 27.5Q564 -22 440 -22ZM525 189Q630 189 696.5 250.0Q763 311 763 400V521Q745 508 704.5 498.5Q664 489 619.0 481.5Q574 474 541 470Q458 458 407.0 423.0Q356 388 356 321Q356 256 403.5 222.5Q451 189 525 189Z"/><path transform="translate(27.368,0) scale(0.003020,-0.003020)" d="M572 -22Q370 -22 238.5 64.0Q107 150 78 306L357 354Q400 198 581 198Q667 198 716.5 230.5Q766 263 766 313Q766 398 622 428L429 468Q107 534 107 785Q107 946 236.0 1039.0Q365 1132 577 1132Q776 1132 894.0 1051.0Q1012 970 1043 834L777 787Q759 844 711.0 880.5Q663 917 581 917Q507 917 457.0 885.5Q407 854 407 804Q407 762 439.5 732.5Q472 703 551 687L752 647Q1072 582 1072 345Q1072 235 1008.0 152.5Q944 70 831.0 24.0Q718 -22 572 -22Z"/><path transform="translate(30.833,0) scale(0.003020,-0.003020)" d="M428 647V0H128V1490H422V904Q471 1013 555.0 1072.5Q639 1132 763 1132Q937 1132 1042.5 1020.0Q1148 908 1148 711V0H847V659Q847 763 793.5 822.0Q740 881 645 881Q549 881 488.5 819.5Q428 758 428 647Z"/></g>
  <g transform="translate(6,27)" fill="#8B3A2A"><path transform="translate(0.000,0) scale(0.001678,-0.001678)" d="M789 -20Q590 -20 440.0 73.0Q290 166 206.0 337.5Q122 509 122 744Q122 981 206.0 1152.5Q290 1324 438.0 1417.0Q586 1510 777 1510Q935 1510 1063.5 1448.5Q1192 1387 1277.0 1277.5Q1362 1168 1389 1023H1193Q1147 1166 1041.5 1250.0Q936 1334 778 1334Q647 1334 540.0 1266.5Q433 1199 370.0 1067.5Q307 936 307 744Q307 554 370.5 423.0Q434 292 543.0 224.0Q652 156 789 156Q913 156 1008.0 208.0Q1103 260 1157.5 356.0Q1212 452 1214 583H828V749H1400V586Q1400 401 1321.0 265.0Q1242 129 1104.5 54.5Q967 -20 789 -20Z"/><path transform="translate(2.564,0) scale(0.001678,-0.001678)" d="M645 0H180V1490H664Q882 1490 1036.5 1401.0Q1191 1312 1273.5 1145.5Q1356 979 1356 748Q1356 515 1273.0 347.5Q1190 180 1031.0 90.0Q872 0 645 0ZM370 168H633Q905 168 1038.5 322.5Q1172 477 1172 748Q1172 1017 1041.0 1169.5Q910 1322 651 1322H370Z"/><path transform="translate(5.044,0) scale(0.001678,-0.001678)" d="M783 -20Q592 -20 442.5 72.5Q293 165 207.5 336.5Q122 508 122 744Q122 981 207.5 1152.5Q293 1324 442.5 1417.0Q592 1510 783 1510Q934 1510 1060.5 1451.5Q1187 1393 1272.5 1284.0Q1358 1175 1384 1021H1194Q1173 1123 1112.5 1193.0Q1052 1263 966.0 1298.5Q880 1334 783 1334Q649 1334 541.0 1266.0Q433 1198 370.0 1066.5Q307 935 307 744Q307 554 370.5 422.5Q434 291 542.0 223.5Q650 156 783 156Q881 156 966.5 192.0Q1052 228 1112.5 298.0Q1173 368 1194 469H1384Q1358 318 1273.5 208.0Q1189 98 1062.5 39.0Q936 -20 783 -20Z"/><path transform="translate(8.413,0) scale(0.001678,-0.001678)" d="M711 0 779 411H407L340 0H189L256 411H34L59 561H281L341 927H122L147 1079H366L433 1490H584L517 1079H889L957 1490H1108L1041 1079H1261L1238 927H1016L956 561H1175L1150 411H931L864 0ZM432 561H804L864 927H492Z"/><path transform="translate(10.589,0) scale(0.001678,-0.001678)" d="M653 1490V0H466V1314H456L96 1047V1251L420 1490Z"/><path transform="translate(11.987,0) scale(0.001678,-0.001678)" d="M200 0 862 1311V1323H98V1490H1061V1313L400 0Z"/><path transform="translate(13.931,0) scale(0.001678,-0.001678)" d="M646 -20Q553 -20 460.0 14.0Q367 48 290.5 128.0Q214 208 168.0 345.0Q122 482 122 688Q122 1081 269.0 1295.5Q416 1510 669 1510Q794 1510 893.0 1460.0Q992 1410 1055.0 1321.0Q1118 1232 1136 1115H950Q925 1212 855.0 1277.0Q785 1342 669 1342Q497 1342 399.5 1193.5Q302 1045 302 776H314Q374 869 469.5 921.5Q565 974 681 974Q809 974 915.0 911.0Q1021 848 1084.5 736.5Q1148 625 1148 481Q1148 342 1086.0 228.5Q1024 115 911.0 47.5Q798 -20 646 -20ZM646 147Q736 147 808.0 192.0Q880 237 922.0 312.5Q964 388 964 481Q964 572 923.5 646.5Q883 721 812.0 765.0Q741 809 651 809Q561 809 488.0 763.0Q415 717 372.0 641.5Q329 566 329 479Q329 391 370.0 315.5Q411 240 483.0 193.5Q555 147 646 147Z"/><path transform="translate(16.062,0) scale(0.001678,-0.001678)" d="M646 -20Q553 -20 460.0 14.0Q367 48 290.5 128.0Q214 208 168.0 345.0Q122 482 122 688Q122 1081 269.0 1295.5Q416 1510 669 1510Q794 1510 893.0 1460.0Q992 1410 1055.0 1321.0Q1118 1232 1136 1115H950Q925 1212 855.0 1277.0Q785 1342 669 1342Q497 1342 399.5 1193.5Q302 1045 302 776H314Q374 869 469.5 921.5Q565 974 681 974Q809 974 915.0 911.0Q1021 848 1084.5 736.5Q1148 625 1148 481Q1148 342 1086.0 228.5Q1024 115 911.0 47.5Q798 -20 646 -20ZM646 147Q736 147 808.0 192.0Q880 237 922.0 312.5Q964 388 964 481Q964 572 923.5 646.5Q883 721 812.0 765.0Q741 809 651 809Q561 809 488.0 763.0Q415 717 372.0 641.5Q329 566 329 479Q329 391 370.0 315.5Q411 240 483.0 193.5Q555 147 646 147Z"/><path transform="translate(18.193,0) scale(0.001678,-0.001678)" d="M603 -20Q476 -20 377.0 30.0Q278 80 215.0 170.0Q152 260 134 379H322Q345 280 415.0 214.0Q485 148 603 148Q773 148 871.5 296.5Q970 445 970 716H958Q898 625 803.0 571.0Q708 517 591 517Q463 517 356.0 580.5Q249 644 185.5 755.5Q122 867 122 1010Q122 1149 185.0 1263.5Q248 1378 361.5 1445.5Q475 1513 628 1510Q720 1509 812.0 1474.5Q904 1440 980.0 1361.0Q1056 1282 1102.0 1146.0Q1148 1010 1148 804Q1148 409 1002.0 194.5Q856 -20 603 -20ZM619 683Q710 683 783.0 729.5Q856 776 899.5 852.0Q943 928 943 1015Q943 1101 901.5 1175.5Q860 1250 788.5 1296.5Q717 1343 625 1343Q535 1343 463.5 1298.5Q392 1254 350.0 1178.5Q308 1103 308 1011Q308 920 348.5 845.5Q389 771 459.0 727.0Q529 683 619 683Z"/><path transform="translate(20.324,0) scale(0.001678,-0.001678)" d="M633 -20Q482 -20 366.5 33.5Q251 87 186.5 181.0Q122 275 122 396Q122 490 160.0 570.5Q198 651 264.0 705.0Q330 759 413 774V782Q304 810 240.0 903.0Q176 996 176 1114Q176 1228 235.0 1317.5Q294 1407 397.0 1458.5Q500 1510 633 1510Q764 1510 867.0 1458.5Q970 1407 1029.5 1317.5Q1089 1228 1089 1114Q1089 996 1024.5 903.0Q960 810 854 782V774Q935 759 1001.0 705.0Q1067 651 1106.0 570.5Q1145 490 1145 396Q1145 275 1079.5 181.0Q1014 87 898.5 33.5Q783 -20 633 -20ZM633 145Q781 145 868.0 216.5Q955 288 955 406Q955 489 913.0 552.5Q871 616 798.0 652.5Q725 689 633 689Q492 689 400.5 609.5Q309 530 309 406Q309 288 395.5 216.5Q482 145 633 145ZM633 848Q751 848 828.0 917.5Q905 987 905 1100Q905 1212 830.0 1279.0Q755 1346 633 1346Q509 1346 434.5 1279.0Q360 1212 360 1100Q360 987 436.0 917.5Q512 848 633 848Z"/></g>
  <g transform="translate(6,31.3)" fill="#8B3A2A"><path transform="translate(0.000,0) scale(0.001678,-0.001678)" d="M338 670V0H158V1490H338V924Q393 1036 478.5 1084.0Q564 1132 674 1132Q844 1132 948.5 1027.0Q1053 922 1053 710V0H872V695Q872 824 804.5 897.0Q737 970 620 970Q499 970 418.5 891.5Q338 813 338 670Z"/><path transform="translate(2.032,0) scale(0.001678,-0.001678)" d="M295 -13Q239 -13 199.5 26.5Q160 66 160 122Q160 178 199.5 217.5Q239 257 295 257Q351 257 390.5 217.5Q430 178 430 122Q430 66 390.5 26.5Q351 -13 295 -13Z"/><path transform="translate(3.022,0) scale(0.001678,-0.001678)" d="M338 670V0H158V1118H331L332 911Q386 1030 473.5 1081.0Q561 1132 674 1132Q844 1132 948.0 1027.0Q1052 922 1052 710V0H872V695Q872 824 804.5 897.0Q737 970 620 970Q499 970 418.5 891.5Q338 813 338 670Z"/><path transform="translate(5.052,0) scale(0.001678,-0.001678)" d="M471 -26Q365 -26 278.5 14.0Q192 54 141.0 131.0Q90 208 90 318Q90 414 128.0 474.0Q166 534 229.5 568.5Q293 603 370.0 620.0Q447 637 525 647Q625 660 688.0 667.0Q751 674 781.5 691.0Q812 708 812 749V755Q812 859 753.0 916.5Q694 974 578 974Q457 974 389.0 921.5Q321 869 295 810L122 867Q165 969 238.0 1026.5Q311 1084 399.0 1108.0Q487 1132 573 1132Q629 1132 700.5 1118.5Q772 1105 838.5 1065.0Q905 1025 948.5 946.5Q992 868 992 737V0H815V152H803Q784 113 742.0 71.5Q700 30 633.0 2.0Q566 -26 471 -26ZM502 133Q602 133 671.0 172.0Q740 211 776.0 273.5Q812 336 812 404V559Q801 546 764.0 535.5Q727 525 679.5 517.0Q632 509 587.5 503.5Q543 498 517 495Q452 487 395.5 467.5Q339 448 305.0 410.5Q271 373 271 309Q271 222 336.5 177.5Q402 133 502 133Z"/><path transform="translate(6.982,0) scale(0.001678,-0.001678)" d="M538 -24Q366 -24 252.0 51.0Q138 126 108 271L279 312Q303 220 369.5 177.0Q436 134 536 134Q653 134 722.5 184.0Q792 234 792 303Q792 418 628 457L442 501Q142 572 142 806Q142 902 196.0 975.5Q250 1049 343.5 1090.5Q437 1132 556 1132Q729 1132 824.5 1056.5Q920 981 958 863L795 821Q772 881 718.5 930.0Q665 979 557 979Q457 979 390.5 933.0Q324 887 324 817Q324 755 369.0 717.5Q414 680 512 657L681 617Q833 581 906.0 505.5Q979 430 979 315Q979 217 923.5 140.5Q868 64 768.5 20.0Q669 -24 538 -24Z"/><path transform="translate(8.795,0) scale(0.001678,-0.001678)" d="M338 670V0H158V1490H338V924Q393 1036 478.5 1084.0Q564 1132 674 1132Q844 1132 948.5 1027.0Q1053 922 1053 710V0H872V695Q872 824 804.5 897.0Q737 970 620 970Q499 970 418.5 891.5Q338 813 338 670Z"/><path transform="translate(10.827,0) scale(0.001678,-0.001678)" d="M653 1490V0H466V1314H456L96 1047V1251L420 1490Z"/><path transform="translate(12.225,0) scale(0.001678,-0.001678)" d="M1044 -395Q598 -395 360.0 -155.5Q122 84 122 525Q122 810 229.5 1014.5Q337 1219 539.0 1328.5Q741 1438 1023 1438Q1229 1438 1384.5 1371.5Q1540 1305 1645.0 1191.5Q1750 1078 1803.0 935.0Q1856 792 1856 640Q1856 533 1845.0 425.5Q1834 318 1799.5 228.5Q1765 139 1696.5 84.5Q1628 30 1512 30Q1460 30 1399.0 46.0Q1338 62 1291.5 99.0Q1245 136 1236 198H1228Q1202 134 1135.0 85.5Q1068 37 955 37Q822 37 732.5 103.0Q643 169 597.5 281.5Q552 394 552 535Q552 669 605.5 775.0Q659 881 752.5 942.5Q846 1004 965 1004Q1061 1004 1125.5 969.0Q1190 934 1217 896H1227V980H1385V321Q1385 261 1418.5 216.0Q1452 171 1516 171Q1626 171 1661.5 284.5Q1697 398 1697 642Q1697 766 1655.5 882.5Q1614 999 1530.0 1092.0Q1446 1185 1318.0 1239.5Q1190 1294 1017 1294Q788 1294 625.0 1201.5Q462 1109 375.5 936.0Q289 763 289 520Q289 151 484.0 -49.5Q679 -250 1051 -250Q1131 -250 1207.5 -235.0Q1284 -220 1344.0 -201.5Q1404 -183 1433 -173L1476 -313Q1430 -332 1357.5 -351.0Q1285 -370 1202.5 -382.5Q1120 -395 1044 -395ZM962 190Q1107 190 1170.0 277.5Q1233 365 1233 543Q1233 722 1165.5 787.5Q1098 853 967 853Q885 853 827.0 810.5Q769 768 738.0 697.5Q707 627 707 543Q707 451 732.0 370.0Q757 289 813.0 239.5Q869 190 962 190Z"/><path transform="translate(15.544,0) scale(0.001678,-0.001678)" d="M471 -26Q365 -26 278.5 14.0Q192 54 141.0 131.0Q90 208 90 318Q90 414 128.0 474.0Q166 534 229.5 568.5Q293 603 370.0 620.0Q447 637 525 647Q625 660 688.0 667.0Q751 674 781.5 691.0Q812 708 812 749V755Q812 859 753.0 916.5Q694 974 578 974Q457 974 389.0 921.5Q321 869 295 810L122 867Q165 969 238.0 1026.5Q311 1084 399.0 1108.0Q487 1132 573 1132Q629 1132 700.5 1118.5Q772 1105 838.5 1065.0Q905 1025 948.5 946.5Q992 868 992 737V0H815V152H803Q784 113 742.0 71.5Q700 30 633.0 2.0Q566 -26 471 -26ZM502 133Q602 133 671.0 172.0Q740 211 776.0 273.5Q812 336 812 404V559Q801 546 764.0 535.5Q727 525 679.5 517.0Q632 509 587.5 503.5Q543 498 517 495Q452 487 395.5 467.5Q339 448 305.0 410.5Q271 373 271 309Q271 222 336.5 177.5Q402 133 502 133Z"/><path transform="translate(17.473,0) scale(0.001678,-0.001678)" d="M538 -24Q366 -24 252.0 51.0Q138 126 108 271L279 312Q303 220 369.5 177.0Q436 134 536 134Q653 134 722.5 184.0Q792 234 792 303Q792 418 628 457L442 501Q142 572 142 806Q142 902 196.0 975.5Q250 1049 343.5 1090.5Q437 1132 556 1132Q729 1132 824.5 1056.5Q920 981 958 863L795 821Q772 881 718.5 930.0Q665 979 557 979Q457 979 390.5 933.0Q324 887 324 817Q324 755 369.0 717.5Q414 680 512 657L681 617Q833 581 906.0 505.5Q979 430 979 315Q979 217 923.5 140.5Q868 64 768.5 20.0Q669 -24 538 -24Z"/><path transform="translate(19.287,0) scale(0.001678,-0.001678)" d="M140 -405 186 -249 205 -254Q288 -276 348.0 -247.5Q408 -219 449 -99L481 -6L54 1118H251L489 455Q515 382 535.5 310.0Q556 238 575 168Q594 238 614.5 310.0Q635 382 661 455L901 1118H1097L606 -167Q555 -300 473.0 -363.0Q391 -426 272 -426Q224 -426 189.0 -419.0Q154 -412 140 -405Z"/><path transform="translate(21.218,0) scale(0.001678,-0.001678)" d="M338 670V0H158V1118H331L332 911Q386 1030 473.5 1081.0Q561 1132 674 1132Q844 1132 948.0 1027.0Q1052 922 1052 710V0H872V695Q872 824 804.5 897.0Q737 970 620 970Q499 970 418.5 891.5Q338 813 338 670Z"/><path transform="translate(23.248,0) scale(0.001678,-0.001678)" d="M613 -24Q461 -24 346.5 48.0Q232 120 168.0 250.0Q104 380 104 552Q104 727 168.0 857.5Q232 988 346.5 1060.0Q461 1132 613 1132Q775 1132 897.5 1050.5Q1020 969 1066 823L893 774Q868 860 795.5 915.5Q723 971 613 971Q501 971 429.0 912.5Q357 854 322.0 759.0Q287 664 287 552Q287 442 322.0 347.5Q357 253 429.0 195.0Q501 137 613 137Q726 137 799.5 194.5Q873 252 898 343L1070 294Q1025 145 901.0 60.5Q777 -24 613 -24Z"/><path transform="translate(25.211,0) scale(0.001678,-0.001678)" d="M798 719V553H144V719Z"/><path transform="translate(26.792,0) scale(0.001678,-0.001678)" d="M577 -24Q438 -24 331.0 47.0Q224 118 164.0 248.0Q104 378 104 556Q104 733 164.5 862.5Q225 992 332.0 1062.0Q439 1132 578 1132Q687 1132 751.0 1096.0Q815 1060 849.5 1014.5Q884 969 902 939H916V1490H1096V0H922V173H902Q884 142 848.5 95.5Q813 49 748.5 12.5Q684 -24 577 -24ZM604 137Q756 137 837.0 254.0Q918 371 918 558Q918 743 838.5 857.0Q759 971 604 971Q498 971 427.5 916.0Q357 861 322.0 767.5Q287 674 287 558Q287 441 322.5 345.5Q358 250 429.0 193.5Q500 137 604 137Z"/><path transform="translate(28.896,0) scale(0.001678,-0.001678)" d="M158 0V1118H338V0ZM249 1301Q198 1301 161.0 1336.0Q124 1371 124 1420Q124 1470 161.0 1504.5Q198 1539 249 1539Q301 1539 338.0 1504.5Q375 1470 375 1420Q375 1371 338.0 1336.0Q301 1301 249 1301Z"/><path transform="translate(29.728,0) scale(0.001678,-0.001678)" d="M611 -442Q425 -442 314.0 -374.0Q203 -306 151 -214L297 -120Q321 -152 356.5 -191.0Q392 -230 452.5 -257.5Q513 -285 611 -285Q745 -285 831.5 -221.0Q918 -157 918 -19V205H901Q882 173 847.5 129.0Q813 85 748.5 51.5Q684 18 576 18Q442 18 335.0 81.5Q228 145 166.0 267.0Q104 389 104 564Q104 737 165.0 864.5Q226 992 333.5 1062.0Q441 1132 580 1132Q688 1132 752.5 1096.5Q817 1061 852.0 1015.0Q887 969 906 939H923V1118H1098V-29Q1098 -173 1033.0 -264.5Q968 -356 857.5 -399.0Q747 -442 611 -442ZM606 178Q758 178 839.0 281.5Q920 385 920 568Q920 746 840.5 858.5Q761 971 606 971Q500 971 429.0 916.5Q358 862 322.5 771.0Q287 680 287 568Q287 396 368.0 287.0Q449 178 606 178Z"/><path transform="translate(31.836,0) scale(0.001678,-0.001678)" d="M158 0V1118H338V0ZM249 1301Q198 1301 161.0 1336.0Q124 1371 124 1420Q124 1470 161.0 1504.5Q198 1539 249 1539Q301 1539 338.0 1504.5Q375 1470 375 1420Q375 1371 338.0 1336.0Q301 1301 249 1301Z"/><path transform="translate(32.668,0) scale(0.001678,-0.001678)" d="M598 1118V964H368V290Q368 215 398.5 180.5Q429 146 500 146Q517 146 543.5 150.0Q570 154 592 158L629 6Q601 -4 565.5 -9.0Q530 -14 495 -14Q350 -14 269.0 62.5Q188 139 188 276V964H20V1118H188V1384H368V1118Z"/><path transform="translate(33.792,0) scale(0.001678,-0.001678)" d="M471 -26Q365 -26 278.5 14.0Q192 54 141.0 131.0Q90 208 90 318Q90 414 128.0 474.0Q166 534 229.5 568.5Q293 603 370.0 620.0Q447 637 525 647Q625 660 688.0 667.0Q751 674 781.5 691.0Q812 708 812 749V755Q812 859 753.0 916.5Q694 974 578 974Q457 974 389.0 921.5Q321 869 295 810L122 867Q165 969 238.0 1026.5Q311 1084 399.0 1108.0Q487 1132 573 1132Q629 1132 700.5 1118.5Q772 1105 838.5 1065.0Q905 1025 948.5 946.5Q992 868 992 737V0H815V152H803Q784 113 742.0 71.5Q700 30 633.0 2.0Q566 -26 471 -26ZM502 133Q602 133 671.0 172.0Q740 211 776.0 273.5Q812 336 812 404V559Q801 546 764.0 535.5Q727 525 679.5 517.0Q632 509 587.5 503.5Q543 498 517 495Q452 487 395.5 467.5Q339 448 305.0 410.5Q271 373 271 309Q271 222 336.5 177.5Q402 133 502 133Z"/><path transform="translate(35.721,0) scale(0.001678,-0.001678)" d="M338 1490V0H158V1490Z"/><path transform="translate(36.554,0) scale(0.001678,-0.001678)" d="M295 -13Q239 -13 199.5 26.5Q160 66 160 122Q160 178 199.5 217.5Q239 257 295 257Q351 257 390.5 217.5Q430 178 430 122Q430 66 390.5 26.5Q351 -13 295 -13Z"/><path transform="translate(37.544,0) scale(0.001678,-0.001678)" d="M613 -24Q461 -24 346.5 48.0Q232 120 168.0 250.0Q104 380 104 552Q104 727 168.0 857.5Q232 988 346.5 1060.0Q461 1132 613 1132Q775 1132 897.5 1050.5Q1020 969 1066 823L893 774Q868 860 795.5 915.5Q723 971 613 971Q501 971 429.0 912.5Q357 854 322.0 759.0Q287 664 287 552Q287 442 322.0 347.5Q357 253 429.0 195.0Q501 137 613 137Q726 137 799.5 194.5Q873 252 898 343L1070 294Q1025 145 901.0 60.5Q777 -24 613 -24Z"/><path transform="translate(39.507,0) scale(0.001678,-0.001678)" d="M613 -24Q461 -24 346.5 48.0Q232 120 168.0 250.0Q104 380 104 552Q104 727 168.0 857.5Q232 988 346.5 1060.0Q461 1132 613 1132Q766 1132 881.0 1060.0Q996 988 1060.0 857.5Q1124 727 1124 552Q1124 380 1060.0 250.0Q996 120 881.0 48.0Q766 -24 613 -24ZM613 137Q726 137 799.0 195.0Q872 253 907.0 347.5Q942 442 942 552Q942 663 907.0 758.5Q872 854 799.0 912.5Q726 971 613 971Q501 971 429.0 912.5Q357 854 322.0 759.0Q287 664 287 552Q287 442 322.0 347.5Q357 253 429.0 195.0Q501 137 613 137Z"/><path transform="translate(41.567,0) scale(0.001678,-0.001678)" d="M158 0V1118H333L334 913Q375 1026 461.5 1082.0Q548 1138 647 1138Q757 1138 829.5 1075.5Q902 1013 932 910Q972 1016 1067.5 1077.0Q1163 1138 1284 1138Q1381 1138 1461.0 1096.0Q1541 1054 1588.5 969.0Q1636 884 1636 754V0H1456V749Q1456 870 1388.0 922.0Q1320 974 1230 974Q1117 974 1052.0 905.0Q987 836 987 730V0H807V767Q807 860 745.0 917.0Q683 974 588 974Q490 974 414.0 906.0Q338 838 338 704V0Z"/></g>
  <g transform="translate(6,35.6)" fill="#8B3A2A"><path transform="translate(0.000,0) scale(0.001678,-0.001678)" d="M646 -20Q397 -20 259.5 180.0Q122 380 122 744Q122 1106 260.5 1308.0Q399 1510 646 1510Q894 1510 1032.0 1308.0Q1170 1106 1170 744Q1170 380 1033.0 180.0Q896 -20 646 -20ZM646 146Q810 146 898.5 303.5Q987 461 987 744Q987 1029 898.5 1187.0Q810 1345 646 1345Q483 1345 394.0 1186.5Q305 1028 305 744Q305 461 394.0 303.5Q483 146 646 146Z"/><path transform="translate(2.168,0) scale(0.001678,-0.001678)" d="M200 0 862 1311V1323H98V1490H1061V1313L400 0Z"/><path transform="translate(4.112,0) scale(0.001678,-0.001678)" d="M635 -20Q489 -20 376.0 30.0Q263 80 196.5 169.0Q130 258 125 376H317Q325 270 415.0 208.5Q505 147 632 147Q772 147 863.5 219.0Q955 291 955 407Q955 528 865.0 604.5Q775 681 609 681H488V846H609Q740 846 821.5 915.5Q903 985 903 1100Q903 1211 831.0 1278.0Q759 1345 637 1345Q561 1345 494.5 1317.5Q428 1290 385.5 1239.0Q343 1188 340 1115H157Q161 1232 227.0 1321.0Q293 1410 401.5 1460.0Q510 1510 641 1510Q780 1510 880.5 1454.0Q981 1398 1035.0 1307.0Q1089 1216 1089 1110Q1089 984 1022.5 896.0Q956 808 842 774V762Q985 739 1064.0 642.5Q1143 546 1143 405Q1143 283 1077.0 187.0Q1011 91 896.0 35.5Q781 -20 635 -20Z"/><path transform="translate(6.235,0) scale(0.001678,-0.001678)" d="M603 -20Q476 -20 377.0 30.0Q278 80 215.0 170.0Q152 260 134 379H322Q345 280 415.0 214.0Q485 148 603 148Q773 148 871.5 296.5Q970 445 970 716H958Q898 625 803.0 571.0Q708 517 591 517Q463 517 356.0 580.5Q249 644 185.5 755.5Q122 867 122 1010Q122 1149 185.0 1263.5Q248 1378 361.5 1445.5Q475 1513 628 1510Q720 1509 812.0 1474.5Q904 1440 980.0 1361.0Q1056 1282 1102.0 1146.0Q1148 1010 1148 804Q1148 409 1002.0 194.5Q856 -20 603 -20ZM619 683Q710 683 783.0 729.5Q856 776 899.5 852.0Q943 928 943 1015Q943 1101 901.5 1175.5Q860 1250 788.5 1296.5Q717 1343 625 1343Q535 1343 463.5 1298.5Q392 1254 350.0 1178.5Q308 1103 308 1011Q308 920 348.5 845.5Q389 771 459.0 727.0Q529 683 619 683Z"/><path transform="translate(8.366,0) scale(0.001678,-0.001678)" d="M200 0 862 1311V1323H98V1490H1061V1313L400 0Z"/><path transform="translate(11.169,0) scale(0.001678,-0.001678)" d="M596 -20Q465 -20 361.0 31.5Q257 83 195.0 172.5Q133 262 128 376H312Q321 276 402.5 211.5Q484 147 596 147Q686 147 756.5 189.0Q827 231 867.0 305.0Q907 379 907 473Q907 569 865.0 645.0Q823 721 750.5 764.5Q678 808 584 808Q515 808 444.0 786.0Q373 764 329 730L151 752L239 1490H1023V1323H399L348 888H356Q402 926 472.0 950.5Q542 975 619 975Q756 975 863.0 910.5Q970 846 1031.5 733.0Q1093 620 1093 476Q1093 333 1028.5 221.0Q964 109 852.0 44.5Q740 -20 596 -20Z"/><path transform="translate(13.208,0) scale(0.001678,-0.001678)" d="M653 1490V0H466V1314H456L96 1047V1251L420 1490Z"/><path transform="translate(14.606,0) scale(0.001678,-0.001678)" d="M646 -20Q553 -20 460.0 14.0Q367 48 290.5 128.0Q214 208 168.0 345.0Q122 482 122 688Q122 1081 269.0 1295.5Q416 1510 669 1510Q794 1510 893.0 1460.0Q992 1410 1055.0 1321.0Q1118 1232 1136 1115H950Q925 1212 855.0 1277.0Q785 1342 669 1342Q497 1342 399.5 1193.5Q302 1045 302 776H314Q374 869 469.5 921.5Q565 974 681 974Q809 974 915.0 911.0Q1021 848 1084.5 736.5Q1148 625 1148 481Q1148 342 1086.0 228.5Q1024 115 911.0 47.5Q798 -20 646 -20ZM646 147Q736 147 808.0 192.0Q880 237 922.0 312.5Q964 388 964 481Q964 572 923.5 646.5Q883 721 812.0 765.0Q741 809 651 809Q561 809 488.0 763.0Q415 717 372.0 641.5Q329 566 329 479Q329 391 370.0 315.5Q411 240 483.0 193.5Q555 147 646 147Z"/><path transform="translate(16.737,0) scale(0.001678,-0.001678)" d="M646 -20Q553 -20 460.0 14.0Q367 48 290.5 128.0Q214 208 168.0 345.0Q122 482 122 688Q122 1081 269.0 1295.5Q416 1510 669 1510Q794 1510 893.0 1460.0Q992 1410 1055.0 1321.0Q1118 1232 1136 1115H950Q925 1212 855.0 1277.0Q785 1342 669 1342Q497 1342 399.5 1193.5Q302 1045 302 776H314Q374 869 469.5 921.5Q565 974 681 974Q809 974 915.0 911.0Q1021 848 1084.5 736.5Q1148 625 1148 481Q1148 342 1086.0 228.5Q1024 115 911.0 47.5Q798 -20 646 -20ZM646 147Q736 147 808.0 192.0Q880 237 922.0 312.5Q964 388 964 481Q964 572 923.5 646.5Q883 721 812.0 765.0Q741 809 651 809Q561 809 488.0 763.0Q415 717 372.0 641.5Q329 566 329 479Q329 391 370.0 315.5Q411 240 483.0 193.5Q555 147 646 147Z"/><path transform="translate(18.867,0) scale(0.001678,-0.001678)" d="M603 -20Q476 -20 377.0 30.0Q278 80 215.0 170.0Q152 260 134 379H322Q345 280 415.0 214.0Q485 148 603 148Q773 148 871.5 296.5Q970 445 970 716H958Q898 625 803.0 571.0Q708 517 591 517Q463 517 356.0 580.5Q249 644 185.5 755.5Q122 867 122 1010Q122 1149 185.0 1263.5Q248 1378 361.5 1445.5Q475 1513 628 1510Q720 1509 812.0 1474.5Q904 1440 980.0 1361.0Q1056 1282 1102.0 1146.0Q1148 1010 1148 804Q1148 409 1002.0 194.5Q856 -20 603 -20ZM619 683Q710 683 783.0 729.5Q856 776 899.5 852.0Q943 928 943 1015Q943 1101 901.5 1175.5Q860 1250 788.5 1296.5Q717 1343 625 1343Q535 1343 463.5 1298.5Q392 1254 350.0 1178.5Q308 1103 308 1011Q308 920 348.5 845.5Q389 771 459.0 727.0Q529 683 619 683Z"/><path transform="translate(20.998,0) scale(0.001678,-0.001678)" d="M154 0V137L649 674Q732 764 787.0 832.0Q842 900 870.0 961.5Q898 1023 898 1092Q898 1209 817.5 1277.0Q737 1345 618 1345Q491 1345 415.5 1269.0Q340 1193 340 1067H158Q158 1199 219.0 1299.0Q280 1399 385.0 1454.5Q490 1510 623 1510Q756 1510 858.5 1454.5Q961 1399 1019.5 1305.0Q1078 1211 1078 1094Q1078 1013 1049.0 936.5Q1020 860 947.0 763.0Q874 666 742 526L416 179V167H1103V0Z"/></g>
  <g fill="#8B3A2A">
    <rect x="67.600" y="7.200" width="7.200" height="1.200" rx="0.600"/>
    <rect x="69.400" y="8.880" width="9.000" height="1.200" rx="0.600"/>
    <rect x="67.000" y="10.560" width="5.400" height="1.200" rx="0.600"/>
    <rect x="68.800" y="12.240" width="9.600" height="1.200" rx="0.600"/>
    <rect x="70.600" y="13.920" width="4.200" height="1.200" rx="0.600"/>
    <rect x="68.200" y="15.600" width="7.800" height="1.200" rx="0.600"/>
  </g>
  <line x1="0" y1="-1" x2="0" y2="-4" stroke="#000" stroke-width="0.2"/>
  <line x1="-1" y1="0" x2="-4" y2="0" stroke="#000" stroke-width="0.2"/>
  <line x1="85" y1="-1" x2="85" y2="-4" stroke="#000" stroke-width="0.2"/>
  <line x1="86" y1="0" x2="89" y2="0" stroke="#000" stroke-width="0.2"/>
  <line x1="0" y1="56" x2="0" y2="59" stroke="#000" stroke-width="0.2"/>
  <line x1="-1" y1="55" x2="-4" y2="55" stroke="#000" stroke-width="0.2"/>
  <line x1="85" y1="56" x2="85" y2="59" stroke="#000" stroke-width="0.2"/>
  <line x1="86" y1="55" x2="89" y2="55" stroke="#000" stroke-width="0.2"/>
</svg>
