<svg xmlns="http://www.w3.org/2000/svg" width="91mm" height="61mm" viewBox="-3 -3 91 61">
  <rect x="-3" y="-3" width="91" height="61" fill="#FDFBF7"/>
  <g transform="translate(6,18)" fill="#8B3A2A"><path transform="translate(0.000,0) scale(0.003020,-0.003020)" d="M182 -279V1581H670V1353H471V-51H670V-279Z"/><path transform="translate(2.332,0) scale(0.003020,-0.003020)" d="M135 0V1490H1115V1237H440V821H1049V572H440V0Z"/><path transform="translate(5.962,0) scale(0.003020,-0.003020)" d="M513 -14Q339 -14 233.5 98.0Q128 210 128 407V1118H428V459Q428 355 482.0 296.0Q536 237 630 237Q726 237 786.5 298.5Q847 360 847 471V1118H1148V0H864L860 232Q813 113 726.5 49.5Q640 -14 513 -14Z"/><path transform="translate(9.812,0) scale(0.003020,-0.003020)" d="M428 1490V0H128V1490Z"/><path transform="translate(11.489,0) scale(0.003020,-0.003020)" d="M428 1490V0H128V1490Z"/><path transform="translate(14.711,0) scale(0.003020,-0.003020)" d="M428 647V0H128V1118H411L415 887Q462 1004 548.0 1068.0Q634 1132 763 1132Q937 1132 1042.0 1020.0Q1147 908 1147 711V0H847V659Q847 763 793.5 822.0Q740 881 645 881Q549 881 488.5 819.5Q428 758 428 647Z"/><path transform="translate(18.562,0) scale(0.003020,-0.003020)" d="M440 -22Q280 -22 174.0 62.5Q68 147 68 313Q68 438 128.0 509.0Q188 580 284.0 613.0Q380 646 490 656Q634 670 697.5 685.5Q761 701 761 756V761Q761 832 715.5 871.0Q670 910 586 910Q499 910 446.0 872.5Q393 835 375 781L100 827Q143 972 271.5 1052.0Q400 1132 587 1132Q707 1132 815.5 1094.0Q924 1056 992.5 972.5Q1061 889 1061 753V0H777V155H767Q726 77 645.0 27.5Q564 -22 440 -22ZM525 189Q630 189 696.5 250.0Q763 311 763 400V521Q745 508 704.5 498.5Q664 489 619.0 481.5Q574 474 541 470Q458 458 407.0 423.0Q356 388 356 321Q356 256 403.5 222.5Q451 189 525 189Z"/><path transform="translate(22.153,0) scale(0.003020,-0.003020)" d="M128 0V1118H406L418 901Q463 1023 550.0 1079.0Q637 1135 737 1135Q949 1135 1025 884Q1072 1013 1170.5 1074.0Q1269 1135 1384 1135Q1538 1135 1639.5 1035.5Q1741 936 1741 754V0H1441V697Q1441 791 1389.5 837.5Q1338 884 1263 884Q1178 884 1128.5 830.0Q1079 776 1079 688V0H789V705Q789 787 740.5 835.5Q692 884 615 884Q536 884 482.0 830.5Q428 777 428 676V0Z"/><path transform="translate(27.797,0) scale(0.003020,-0.003020)" d="M633 -22Q462 -22 338.0 48.0Q214 118 147.5 247.0Q81 376 81 553Q81 726 147.5 856.0Q214 986 334.5 1059.0Q455 1132 618 1132Q764 1132 883.0 1070.0Q1002 1008 1072.5 882.0Q1143 756 1143 565V481H378Q383 344 454.0 274.0Q525 204 638 204Q717 204 773.5 237.5Q830 271 854 336L1126 285Q1085 146 956.5 62.0Q828 -22 633 -22ZM380 669H854Q843 778 784.0 842.0Q725 906 621 906Q513 906 451.0 839.5Q389 773 380 669Z"/><path transform="translate(31.482,0) scale(0.003020,-0.003020)" d="M102 -279V-51H301V1353H102V1581H591V-279Z"/></g>
  <g transform="translate(6,27)" fill="#8B3A2A"><path transform="translate(0.000,0) scale(0.001678,-0.001678)" d="M789 -20Q590 -20 440.0 73.0Q290 166 206.0 337.5Q122 509 122 744Q122 981 206.0 1152.5Q290 1324 438.0 1417.0Q586 1510 777 1510Q935 1510 1063.5 1448.5Q1192 1387 1277.0 1277.5Q1362 1168 1389 1023H1193Q1147 1166 1041.5 1250.0Q936 1334 778 1334Q647 1334 540.0 1266.5Q433 1199 370.0 1067.5Q307 936 307 744Q307 554 370.5 423.0Q434 292 543.0 224.0Q652 156 789 156Q913 156 1008.0 208.0Q1103 260 1157.5 356.0Q1212 452 1214 583H828V749H1400V586Q1400 401 1321.0 265.0Q1242 129 1104.5 54.5Q967 -20 789 -20Z"/><path transform="translate(2.564,0) scale(0.001678,-0.001678)" d="M645 0H180V1490H664Q882 1490 1036.5 1401.0Q1191 1312 1273.5 1145.5Q1356 979 1356 748Q1356 515 1273.0 347.5Q1190 180 1031.0 90.0Q872 0 645 0ZM370 168H633Q905 168 1038.5 322.5Q1172 477 1172 748Q1172 1017 1041.0 1169.5Q910 1322 651 1322H370Z"/><path transform="translate(5.044,0) scale(0.001678,-0.001678)" d="M783 -20Q592 -20 442.5 72.5Q293 165 207.5 336.5Q122 508 122 744Q122 981 207.5 1152.5Q293 1324 442.5 1417.0Q592 1510 783 1510Q934 1510 1060.5 1451.5Q1187 1393 1272.5 1284.0Q1358 1175 1384 1021H1194Q1173 1123 1112.5 1193.0Q1052 1263 966.0 1298.5Q880 1334 783 1334Q649 1334 541.0 1266.0Q433 1198 370.0 1066.5Q307 935 307 744Q307 554 370.5 422.5Q434 291 542.0 223.5Q650 156 783 156Q881 156 966.5 192.0Q1052 228 1112.5 298.0Q1173 368 1194 469H1384Q1358 318 1273.5 208.0Q1189 98 1062.5 39.0Q936 -20 783 -20Z"/><path transform="translate(8.413,0) scale(0.001678,-0.001678)" d="M711 0 779 411H407L340 0H189L256 411H34L59 561H281L341 927H122L147 1079H366L433 1490H584L517 1079H889L957 1490H1108L1041 1079H1261L1238 927H1016L956 561H1175L1150 411H931L864 0ZM432 561H804L864 927H492Z"/><path transform="translate(10.589,0) scale(0.001678,-0.001678)" d="M226 -279V1581H624V1428H398V-126H624V-279Z"/><path transform="translate(11.842,0) scale(0.001678,-0.001678)" d="M338 670V0H158V1118H331L332 911Q386 1030 473.5 1081.0Q561 1132 674 1132Q844 1132 948.0 1027.0Q1052 922 1052 710V0H872V695Q872 824 804.5 897.0Q737 970 620 970Q499 970 418.5 891.5Q338 813 338 670Z"/><path transform="translate(13.872,0) scale(0.001678,-0.001678)" d="M537 -14Q368 -14 263.0 91.0Q158 196 158 408V1118H338V423Q338 294 406.0 221.0Q474 148 591 148Q711 148 791.5 226.5Q872 305 872 448V1118H1053V0H879V209Q824 87 735.5 36.5Q647 -14 537 -14Z"/><path transform="translate(15.904,0) scale(0.001678,-0.001678)" d="M158 0V1118H333L334 913Q375 1026 461.5 1082.0Q548 1138 647 1138Q757 1138 829.5 1075.5Q902 1013 932 910Q972 1016 1067.5 1077.0Q1163 1138 1284 1138Q1381 1138 1461.0 1096.0Q1541 1054 1588.5 969.0Q1636 884 1636 754V0H1456V749Q1456 870 1388.0 922.0Q1320 974 1230 974Q1117 974 1052.0 905.0Q987 836 987 730V0H807V767Q807 860 745.0 917.0Q683 974 588 974Q490 974 414.0 906.0Q338 838 338 704V0Z"/><path transform="translate(18.914,0) scale(0.001678,-0.001678)" d="M677 -24Q571 -24 506.0 12.5Q441 49 406.0 95.5Q371 142 352 173H332V0H158V1490H338V939H352Q371 969 405.0 1014.5Q439 1060 503.0 1096.0Q567 1132 676 1132Q816 1132 922.5 1062.0Q1029 992 1089.5 862.5Q1150 733 1150 556Q1150 378 1090.0 248.0Q1030 118 923.5 47.0Q817 -24 677 -24ZM650 137Q755 137 825.5 193.5Q896 250 931.5 345.5Q967 441 967 558Q967 674 932.0 767.5Q897 861 826.5 916.0Q756 971 650 971Q496 971 416.0 857.0Q336 743 336 558Q336 371 417.0 254.0Q498 137 650 137Z"/><path transform="translate(21.018,0) scale(0.001678,-0.001678)" d="M628 -24Q466 -24 348.5 48.0Q231 120 167.5 249.0Q104 378 104 550Q104 722 166.0 853.0Q228 984 341.5 1058.0Q455 1132 607 1132Q696 1132 782.5 1102.5Q869 1073 939.5 1007.5Q1010 942 1052.0 835.0Q1094 728 1094 573V498H286Q293 323 386.5 229.5Q480 136 629 136Q728 136 799.5 179.5Q871 223 902 308L1076 260Q1037 133 918.5 54.5Q800 -24 628 -24ZM287 650H911Q898 793 821.5 882.5Q745 972 607 972Q511 972 441.5 927.0Q372 882 332.0 809.0Q292 736 287 650Z"/><path transform="translate(23.022,0) scale(0.001678,-0.001678)" d="M158 0V1118H332V946H344Q375 1031 454.5 1082.5Q534 1134 634 1134Q654 1134 681.5 1133.0Q709 1132 725 1131V950Q717 952 685.0 956.0Q653 960 617 960Q496 960 417.0 886.5Q338 813 338 700V0Z"/><path transform="translate(24.315,0) scale(0.001678,-0.001678)" d="M123 -279V-126H349V1428H123V1581H521V-279Z"/></g>
  <g transform="translate(6,31.3)" fill="#8B3A2A"><path transform="translate(0.000,0) scale(0.001678,-0.001678)" d="M226 -279V1581H624V1428H398V-126H624V-279Z"/><path transform="translate(1.253,0) scale(0.001678,-0.001678)" d="M628 -24Q466 -24 348.5 48.0Q231 120 167.5 249.0Q104 378 104 550Q104 722 166.0 853.0Q228 984 341.5 1058.0Q455 1132 607 1132Q696 1132 782.5 1102.5Q869 1073 939.5 1007.5Q1010 942 1052.0 835.0Q1094 728 1094 573V498H286Q293 323 386.5 229.5Q480 136 629 136Q728 136 799.5 179.5Q871 223 902 308L1076 260Q1037 133 918.5 54.5Q800 -24 628 -24ZM287 650H911Q898 793 821.5 882.5Q745 972 607 972Q511 972 441.5 927.0Q372 882 332.0 809.0Q292 736 287 650Z"/><path transform="translate(3.257,0) scale(0.001678,-0.001678)" d="M158 0V1118H333L334 913Q375 1026 461.5 1082.0Q548 1138 647 1138Q757 1138 829.5 1075.5Q902 1013 932 910Q972 1016 1067.5 1077.0Q1163 1138 1284 1138Q1381 1138 1461.0 1096.0Q1541 1054 1588.5 969.0Q1636 884 1636 754V0H1456V749Q1456 870 1388.0 922.0Q1320 974 1230 974Q1117 974 1052.0 905.0Q987 836 987 730V0H807V767Q807 860 745.0 917.0Q683 974 588 974Q490 974 414.0 906.0Q338 838 338 704V0Z"/><path transform="translate(6.267,0) scale(0.001678,-0.001678)" d="M471 -26Q365 -26 278.5 14.0Q192 54 141.0 131.0Q90 208 90 318Q90 414 128.0 474.0Q166 534 229.5 568.5Q293 603 370.0 620.0Q447 637 525 647Q625 660 688.0 667.0Q751 674 781.5 691.0Q812 708 812 749V755Q812 859 753.0 916.5Q694 974 578 974Q457 974 389.0 921.5Q321 869 295 810L122 867Q165 969 238.0 1026.5Q311 1084 399.0 1108.0Q487 1132 573 1132Q629 1132 700.5 1118.5Q772 1105 838.5 1065.0Q905 1025 948.5 946.5Q992 868 992 737V0H815V152H803Q784 113 742.0 71.5Q700 30 633.0 2.0Q566 -26 471 -26ZM502 133Q602 133 671.0 172.0Q740 211 776.0 273.5Q812 336 812 404V559Q801 546 764.0 535.5Q727 525 679.5 517.0Q632 509 587.5 503.5Q543 498 517 495Q452 487 395.5 467.5Q339 448 305.0 410.5Q271 373 271 309Q271 222 336.5 177.5Q402 133 502 133Z"/><path transform="translate(8.196,0) scale(0.001678,-0.001678)" d="M158 0V1118H338V0ZM249 1301Q198 1301 161.0 1336.0Q124 1371 124 1420Q124 1470 161.0 1504.5Q198 1539 249 1539Q301 1539 338.0 1504.5Q375 1470 375 1420Q375 1371 338.0 1336.0Q301 1301 249 1301Z"/><path transform="translate(9.029,0) scale(0.001678,-0.001678)" d="M338 1490V0H158V1490Z"/><path transform="translate(9.861,0) scale(0.001678,-0.001678)" d="M123 -279V-126H349V1428H123V1581H521V-279Z"/></g>
  <g transform="translate(6,35.6)" fill="#8B3A2A"><path transform="translate(0.000,0) scale(0.001678,-0.001678)" d="M226 -279V1581H624V1428H398V-126H624V-279Z"/><path transform="translate(1.253,0) scale(0.001678,-0.001678)" d="M158 -418V1118H332V939H352Q371 969 405.0 1014.5Q439 1060 503.0 1096.0Q567 1132 676 1132Q816 1132 922.5 1062.0Q1029 992 1089.5 862.5Q1150 733 1150 556Q1150 378 1090.0 248.0Q1030 118 923.5 47.0Q817 -24 677 -24Q571 -24 506.0 12.5Q441 49 406.0 95.5Q371 142 352 173H338V-418ZM650 137Q755 137 825.5 193.5Q896 250 931.5 345.5Q967 441 967 558Q967 674 932.0 767.5Q897 861 826.5 916.0Q756 971 650 971Q496 971 416.0 857.0Q336 743 336 558Q336 371 417.0 254.0Q498 137 650 137Z"/><path transform="translate(3.357,0) scale(0.001678,-0.001678)" d="M338 670V0H158V1490H338V924Q393 1036 478.5 1084.0Q564 1132 674 1132Q844 1132 948.5 1027.0Q1053 922 1053 710V0H872V695Q872 824 804.5 897.0Q737 970 620 970Q499 970 418.5 891.5Q338 813 338 670Z"/><path transform="translate(5.389,0) scale(0.001678,-0.001678)" d="M613 -24Q461 -24 346.5 48.0Q232 120 168.0 250.0Q104 380 104 552Q104 727 168.0 857.5Q232 988 346.5 1060.0Q461 1132 613 1132Q766 1132 881.0 1060.0Q996 988 1060.0 857.5Q1124 727 1124 552Q1124 380 1060.0 250.0Q996 120 881.0 48.0Q766 -24 613 -24ZM613 137Q726 137 799.0 195.0Q872 253 907.0 347.5Q942 442 942 552Q942 663 907.0 758.5Q872 854 799.0 912.5Q726 971 613 971Q501 971 429.0 912.5Q357 854 322.0 759.0Q287 664 287 552Q287 442 322.0 347.5Q357 253 429.0 195.0Q501 137 613 137Z"/><path transform="translate(7.450,0) scale(0.001678,-0.001678)" d="M338 670V0H158V1118H331L332 911Q386 1030 473.5 1081.0Q561 1132 674 1132Q844 1132 948.0 1027.0Q1052 922 1052 710V0H872V695Q872 824 804.5 897.0Q737 970 620 970Q499 970 418.5 891.5Q338 813 338 670Z"/><path transform="translate(9.480,0) scale(0.001678,-0.001678)" d="M628 -24Q466 -24 348.5 48.0Q231 120 167.5 249.0Q104 378 104 550Q104 722 166.0 853.0Q228 984 341.5 1058.0Q455 1132 607 1132Q696 1132 782.5 1102.5Q869 1073 939.5 1007.5Q1010 942 1052.0 835.0Q1094 728 1094 573V498H286Q293 323 386.5 229.5Q480 136 629 136Q728 136 799.5 179.5Q871 223 902 308L1076 260Q1037 133 918.5 54.5Q800 -24 628 -24ZM287 650H911Q898 793 821.5 882.5Q745 972 607 972Q511 972 441.5 927.0Q372 882 332.0 809.0Q292 736 287 650Z"/><path transform="translate(11.483,0) scale(0.001678,-0.001678)" d="M123 -279V-126H349V1428H123V1581H521V-279Z"/></g>
  <g fill="#8B3A2A">
    <rect x="67.600" y="7.200" width="7.200" height="1.200" rx="0.600"/>
    <rect x="69.400" y="8.880" width="9.000" height="1.200" rx="0.600"/>
    <rect x="67.000" y="10.560" width="5.400" height="1.200" rx="0.600"/>
    <rect x="68.800" y="12.240" width="9.600" height="1.200" rx="0.600"/>
    <rect x="70.600" y="13.920" width="4.200" height="1.200" rx="0.600"/>
    <rect x="68.200" y="15.600" width="7.800" height="1.200" rx="0.600"/>
  </g>
  <line x1="0" y1="-1" x2="0" y2="-4" stroke="#000" stroke-width="0.2"/>
  <line x1="-1" y1="0" x2="-4" y2="0" stroke="#000" stroke-width="0.2"/>
  <line x1="85" y1="-1" x2="85" y2="-4" stroke="#000" stroke-width="0.2"/>
  <line x1="86" y1="0" x2="89" y2="0" stroke="#000" stroke-width="0.2"/>
  <line x1="0" y1="56" x2="0" y2="59" stroke="#000" stroke-width="0.2"/>
  <line x1="-1" y1="55" x2="-4" y2="55" stroke="#000" stroke-width="0.2"/>
  <line x1="85" y1="56" x2="85" y2="59" stroke="#000" stroke-width="0.2"/>
  <line x1="86" y1="55" x2="89" y2="55" stroke="#000" stroke-width="0.2"/>
</svg>
