<svg xmlns="http://www.w3.org/2000/svg" viewBox="0 0 231.70 161.24" color="#8B3A2A" role="img" aria-label="Async Digital">
  <g fill="currentColor">
  <rect x="70.85" y="10" width="60" height="10" rx="5.0"/>
  <rect x="85.85" y="24" width="75" height="10" rx="5.0"/>
  <rect x="65.85" y="38" width="45" height="10" rx="5.0"/>
  <rect x="80.85" y="52" width="80" height="10" rx="5.0"/>
  <rect x="95.85" y="66" width="35" height="10" rx="5.0"/>
  <rect x="75.85" y="80" width="65" height="10" rx="5.0"/>
  </g>
  <g transform="translate(0.00,152.62) scale(0.0174,-0.0174)" fill="currentColor"><path transform="translate(0.00,0)" d="M49 0 558 1490H958L1480 0H1141L1026 346H497L386 0ZM573 585H947L902 719Q866 833 830.0 966.0Q794 1099 755 1251Q718 1097 684.0 964.0Q650 831 616 719Z"/><path transform="translate(1529.00,0)" d="M572 -22Q370 -22 238.5 64.0Q107 150 78 306L357 354Q400 198 581 198Q667 198 716.5 230.5Q766 263 766 313Q766 398 622 428L429 468Q107 534 107 785Q107 946 236.0 1039.0Q365 1132 577 1132Q776 1132 894.0 1051.0Q1012 970 1043 834L777 787Q759 844 711.0 880.5Q663 917 581 917Q507 917 457.0 885.5Q407 854 407 804Q407 762 439.5 732.5Q472 703 551 687L752 647Q1072 582 1072 345Q1072 235 1008.0 152.5Q944 70 831.0 24.0Q718 -22 572 -22Z"/><path transform="translate(2676.00,0)" d="M120 -396 189 -170 226 -179Q317 -204 375.0 -175.5Q433 -147 443 -63L451 -3L31 1118H350L538 538Q561 465 577.0 392.5Q593 320 609 246Q627 321 646.5 393.5Q666 466 690 538L886 1118H1201L726 -132Q675 -267 579.5 -346.5Q484 -426 316 -426Q256 -426 204.0 -417.5Q152 -409 120 -396Z"/><path transform="translate(3909.00,0)" d="M428 647V0H128V1118H411L415 887Q462 1004 548.0 1068.0Q634 1132 763 1132Q937 1132 1042.0 1020.0Q1147 908 1147 711V0H847V659Q847 763 793.5 822.0Q740 881 645 881Q549 881 488.5 819.5Q428 758 428 647Z"/><path transform="translate(5184.00,0)" d="M628 -22Q459 -22 336.5 50.5Q214 123 147.5 252.5Q81 382 81 554Q81 727 147.5 857.0Q214 987 336.5 1059.5Q459 1132 628 1132Q827 1132 960.0 1032.5Q1093 933 1125 760L846 708Q827 795 772.5 845.5Q718 896 631 896Q511 896 449.0 801.5Q387 707 387 555Q387 405 449.0 309.5Q511 214 631 214Q718 214 774.0 266.5Q830 319 848 409L1127 358Q1095 181 962.0 79.5Q829 -22 628 -22Z"/><path transform="translate(6901.00,0)" d="M659 0H135V1490H664Q888 1490 1049.5 1400.5Q1211 1311 1298.0 1144.5Q1385 978 1385 746Q1385 513 1298.0 346.0Q1211 179 1048.0 89.5Q885 0 659 0ZM440 263H644Q859 263 970.0 379.0Q1081 495 1081 746Q1081 996 970.5 1111.5Q860 1227 646 1227H440Z"/><path transform="translate(8380.00,0)" d="M128 0V1118H428V0ZM278 1264Q210 1264 162.0 1309.0Q114 1354 114 1418Q114 1482 162.0 1527.0Q210 1572 278 1572Q346 1572 394.5 1527.0Q443 1482 443 1418Q443 1354 394.5 1309.0Q346 1264 278 1264Z"/><path transform="translate(8935.00,0)" d="M625 -442Q415 -442 287.0 -365.0Q159 -288 122 -168L380 -96Q401 -143 457.5 -183.5Q514 -224 623 -224Q737 -224 803.0 -171.5Q869 -119 869 -8V198H846Q815 130 743.5 73.0Q672 16 536 16Q410 16 307.0 75.0Q204 134 142.5 255.0Q81 376 81 561Q81 750 143.5 877.0Q206 1004 309.5 1068.0Q413 1132 537 1132Q631 1132 695.0 1100.0Q759 1068 798.5 1021.0Q838 974 858 930H871V1118H1166V9Q1166 -142 1096.5 -242.5Q1027 -343 904.5 -392.5Q782 -442 625 -442ZM630 244Q745 244 807.5 328.5Q870 413 870 563Q870 712 808.0 802.0Q746 892 630 892Q512 892 450.5 799.5Q389 707 389 563Q389 416 451.0 330.0Q513 244 630 244Z"/><path transform="translate(10229.00,0)" d="M128 0V1118H428V0ZM278 1264Q210 1264 162.0 1309.0Q114 1354 114 1418Q114 1482 162.0 1527.0Q210 1572 278 1572Q346 1572 394.5 1527.0Q443 1482 443 1418Q443 1354 394.5 1309.0Q346 1264 278 1264Z"/><path transform="translate(10784.00,0)" d="M683 1118V889H474V327Q474 223 576 223Q593 223 623.5 227.5Q654 232 671 236L714 11Q664 -4 614.5 -10.0Q565 -16 520 -16Q352 -16 263.0 65.5Q174 147 174 301V889H20V1118H174V1384H474V1118Z"/><path transform="translate(11534.00,0)" d="M440 -22Q280 -22 174.0 62.5Q68 147 68 313Q68 438 128.0 509.0Q188 580 284.0 613.0Q380 646 490 656Q634 670 697.5 685.5Q761 701 761 756V761Q761 832 715.5 871.0Q670 910 586 910Q499 910 446.0 872.5Q393 835 375 781L100 827Q143 972 271.5 1052.0Q400 1132 587 1132Q707 1132 815.5 1094.0Q924 1056 992.5 972.5Q1061 889 1061 753V0H777V155H767Q726 77 645.0 27.5Q564 -22 440 -22ZM525 189Q630 189 696.5 250.0Q763 311 763 400V521Q745 508 704.5 498.5Q664 489 619.0 481.5Q574 474 541 470Q458 458 407.0 423.0Q356 388 356 321Q356 256 403.5 222.5Q451 189 525 189Z"/><path transform="translate(12723.00,0)" d="M428 1490V0H128V1490Z"/></g>
</svg>
